<svg height='100px' width='100px'  fill="#fff" xmlns="http://www.w3.org/2000/svg" xmlns:xlink="http://www.w3.org/1999/xlink" version="1.1" x="0px" y="0px" viewBox="0 0 30 30" style="enable-background:new 0 0 30 30;" xml:space="preserve"><path d="M9,12c0-2.757,2.243-5,5-5h10V4c0-1.654-1.346-3-3-3H4C2.346,1,1,2.346,1,4v14c0,1.654,1.346,3,3,3h0.524l-0.516,3.868  c-0.057,0.425,0.164,0.839,0.548,1.029C4.698,25.966,4.85,26,5,26c0.259,0,0.516-0.101,0.707-0.293L9,22.414V12z"></path><path d="M26,9h-1h-1H14c-1.654,0-3,1.346-3,3v9v1c0,1.654,1.346,3,3,3h3.056l6.43,3.857C23.645,28.953,23.822,29,24,29  c0.197,0,0.394-0.058,0.562-0.173c0.322-0.22,0.488-0.606,0.424-0.991L24.514,25H26c1.654,0,3-1.346,3-3V12C29,10.346,27.654,9,26,9  z"></path></svg>