<svg height='100px' width='100px'  fill="#707070" xmlns:sketch="http://www.bohemiancoding.com/sketch/ns" xmlns="http://www.w3.org/2000/svg" xmlns:xlink="http://www.w3.org/1999/xlink" version="1.1" x="0px" y="0px" viewBox="0 0 100 100" style="enable-background:new 0 0 100 100;" xml:space="preserve"><title>ic_priority_f</title><desc>Created with Sketch.</desc><g sketch:type="MSPage"><g transform="translate(-13.000000, -9.000000)" sketch:type="MSArtboardGroup"><path sketch:type="MSShapeGroup" d="M89.3,52l11.5-21.1c0.8-1.5,0.8-3.2-0.1-4.6c-0.8-1.4-2.3-2.3-4-2.3H73.5    c-1.3,0-2.3-1-2.3-2.3c0-3.8-3.1-7-7-7h-35v-2.4c0-1.3-1-2.3-2.3-2.3s-2.3,1-2.3,2.3v93.3c0,1.3,1,2.3,2.3,2.3s2.3-1,2.3-2.3v-35    h28c1.3,0,2.3,1,2.3,2.3c0,3.9,3.1,7,7,7h30.2c1.7,0,3.2-0.9,4-2.3c0.8-1.4,0.9-3.2,0.1-4.6L89.3,52"></path></g></g></svg>