<svg height='100px' width='100px'  fill="#707070" xmlns="http://www.w3.org/2000/svg" xmlns:xlink="http://www.w3.org/1999/xlink" version="1.1" x="0px" y="0px" viewBox="0 0 100 100" style="enable-background:new 0 0 100 100;" xml:space="preserve"><path d="M91.2,15.2c-5.1-5.1-11.8-7.9-19-7.9s-14,2.8-19,7.9l-2.9,2.9c-0.1,0.1-0.2,0.1-0.3,0l-2.9-2.9c-5.1-5.1-11.8-7.9-19-7.9  c-7.2,0-14,2.8-19,7.9c-10.5,10.5-10.5,27.6,0,38.1l38.3,38.3c0.8,0.8,1.8,1.2,2.9,1.2c1.1,0,2.1-0.4,2.9-1.2l38.3-38.3  c5.1-5.1,7.8-11.8,7.8-19C99,27,96.2,20.2,91.2,15.2z M88.4,50.5L50.2,88.8c-0.1,0.1-0.2,0.1-0.3,0L11.6,50.5c-9-9-9-23.6,0-32.6  c4.3-4.3,10.1-6.7,16.3-6.7s12,2.4,16.3,6.7l2.9,2.9c0.8,0.8,1.8,1.2,2.9,1.2c1.1,0,2.1-0.4,2.9-1.2l2.9-2.9  c4.3-4.3,10.1-6.7,16.3-6.7c6.2,0,12,2.4,16.3,6.7c4.3,4.3,6.7,10.1,6.7,16.3C95.1,40.4,92.8,46.2,88.4,50.5z"></path></svg>