<?xml version="1.0" encoding="utf-8"?>
<!-- Generator: Adobe Illustrator 23.0.4, SVG Export Plug-In . SVG Version: 6.00 Build 0)  -->
<svg version="1.1" id="Layer_1" xmlns="http://www.w3.org/2000/svg" xmlns:xlink="http://www.w3.org/1999/xlink" x="0px" y="0px"
	 viewBox="0 0 827.3 210" style="enable-background:new 0 0 827.3 210;" xml:space="preserve">
<style type="text/css">
	.st0{fill:#D71F26;}
</style>
<g>
	<path class="st0" d="M73.3,153.1c-21.7,0-39.3-6.6-52.9-19.9C6.8,119.9,0,102.2,0,80.1v-3.8c0-14.8,2.9-28.1,8.6-39.8
		c5.7-11.7,13.9-20.7,24.4-27C43.5,3.2,55.5,0,68.9,0c20.2,0,36.1,6.4,47.7,19.1C128.2,31.8,134,49.9,134,73.3v16.1H40
		c1.3,9.6,5.1,17.4,11.5,23.2c6.4,5.8,14.5,8.7,24.4,8.7c15.2,0,27.1-5.5,35.6-16.5l19.4,21.7c-5.9,8.4-13.9,14.9-24,19.6
		S85.6,153.1,73.3,153.1z M68.8,31.8c-7.8,0-14.2,2.7-19,8c-4.9,5.3-8,12.9-9.3,22.8h54.9v-3.2c-0.2-8.8-2.5-15.6-7.1-20.4
		C83.6,34.2,77.1,31.8,68.8,31.8z"/>
	<path class="st0" d="M242,150.4c-1.8-3.5-3.1-8-4-13.2c-9.6,10.6-22,16-37.3,16c-14.5,0-26.5-4.2-36-12.6
		c-9.5-8.4-14.3-18.9-14.3-31.7c0-15.6,5.8-27.7,17.4-36c11.6-8.4,28.4-12.6,50.3-12.7h18.2v-8.5c0-6.8-1.8-12.3-5.3-16.4
		c-3.5-4.1-9-6.1-16.6-6.1c-6.6,0-11.9,1.6-15.6,4.8c-3.8,3.2-5.7,7.6-5.7,13.1h-39.4c0-8.6,2.6-16.5,7.9-23.7
		c5.3-7.3,12.7-13,22.4-17.1c9.6-4.1,20.5-6.2,32.5-6.2c18.2,0,32.6,4.6,43.3,13.7c10.7,9.1,16,22,16,38.6v64
		c0.1,14,2,24.6,5.9,31.8v2.3H242z M209.3,123c5.8,0,11.2-1.3,16.1-3.9s8.6-6.1,10.9-10.4V83.2h-14.7c-19.7,0-30.3,6.8-31.5,20.5
		L190,106c0,4.9,1.7,9,5.2,12.1C198.6,121.4,203.3,123,209.3,123z"/>
	<path class="st0" d="M351.5,118.6h72.2v31.8H301.2v-24l69.5-91.8h-67.4V2.7h118.3V26L351.5,118.6z"/>
	<path class="st0" d="M503.6,94.6l27.3-91.8h42.3l-59.4,170.6l-3.3,7.8c-8.8,19.3-23.4,28.9-43.7,28.9c-5.7,0-11.6-0.9-17.5-2.6
		v-29.9l6,0.1c7.5,0,13-1.1,16.7-3.4c3.7-2.3,6.6-6.1,8.7-11.3l4.6-12.1L433.7,2.7h42.4L503.6,94.6z"/>
	<path class="st0" d="M594.6,130.9c3.4,0,6.1,1,8,2.9c1.9,2,2.8,4.4,2.8,7.3c0,2.9-0.9,5.3-2.8,7.2c-1.9,1.9-4.5,2.9-8,2.9
		c-3.3,0-5.9-0.9-7.8-2.8c-1.9-1.9-2.9-4.3-2.9-7.2c0-2.9,0.9-5.4,2.8-7.3C588.5,131.9,591.2,130.9,594.6,130.9z"/>
	<path class="st0" d="M643.9,68.1l0.5,8.6c5.8-6.7,13.7-10.1,23.7-10.1c11,0,18.5,4.2,22.6,12.6c6-8.4,14.4-12.6,25.3-12.6
		c9.1,0,15.8,2.5,20.3,7.5c4.4,5,6.7,12.4,6.8,22.2v54.1h-18.5V96.8c0-5.2-1.1-9.1-3.4-11.5c-2.3-2.4-6.1-3.7-11.3-3.7
		c-4.2,0-7.6,1.1-10.3,3.4c-2.7,2.3-4.5,5.2-5.6,8.9l0.1,56.4h-18.5V96.2c-0.3-9.7-5.2-14.5-14.8-14.5c-7.4,0-12.7,3-15.7,9.1v59.6
		h-18.5V68.1H643.9z"/>
	<path class="st0" d="M790.9,123.9l16.7-55.8h19.7l-32.7,94.8c-5,13.8-13.5,20.8-25.6,20.8c-2.7,0-5.7-0.5-8.9-1.4v-14.4l3.5,0.2
		c4.7,0,8.2-0.8,10.5-2.5c2.4-1.7,4.2-4.5,5.6-8.6l2.7-7.1l-28.9-81.9h19.9L790.9,123.9z"/>
</g>
</svg>
