<svg height='100px' width='100px'  fill="#e01a1a" xmlns:dc="http://purl.org/dc/elements/1.1/" xmlns:cc="http://creativecommons.org/ns#" xmlns:rdf="http://www.w3.org/1999/02/22-rdf-syntax-ns#" xmlns:svg="http://www.w3.org/2000/svg" xmlns="http://www.w3.org/2000/svg" xmlns:sodipodi="http://sodipodi.sourceforge.net/DTD/sodipodi-0.dtd" xmlns:inkscape="http://www.inkscape.org/namespaces/inkscape" version="1.1" x="0px" y="0px" viewBox="0 0 100 100"><g transform="translate(0,-952.36218)"><path d="m 28.98995,997.0217 c 8.42261,13.6528 14.03775,19.1143 28.07552,27.3058 l 11.23021,-10.9223 c 5.73505,1.425 12.97487,3.381 18.78589,3.3579 1.937,-0.015 3.86614,1.8689 3.91841,3.6685 l -0.13056,17.0394 c -0.008,1.8844 -1.95268,3.776 -3.92663,3.891 -48.38811,0.083 -76.36092,-27.1235 -77.9334605,-74.27597 -0.16061,-1.82194 1.7843505,-3.7136 3.7213005,-3.7214 l 19.18845,0 c 2.11865,-0.0796 4.04783,1.79665 4.50761,2.94263 -0.4912,6.39041 2.29483,14.18542 3.79353,19.79566 z" style="" fill="#e01a1a" stroke="none"></path></g></svg>