<svg height='100px' width='100px'  fill="#707070" xmlns:x="http://ns.adobe.com/Extensibility/1.0/" xmlns:i="http://ns.adobe.com/AdobeIllustrator/10.0/" xmlns:graph="http://ns.adobe.com/Graphs/1.0/" xmlns="http://www.w3.org/2000/svg" xmlns:xlink="http://www.w3.org/1999/xlink" version="1.1" x="0px" y="0px" viewBox="0 0 100 100" enable-background="new 0 0 100 100" xml:space="preserve"><g><g i:extraneous="self"><path fill="#707070" d="M50,5C25.3,5,5.2,25.1,5,49.7c-0.1,12,4.5,23.4,13,31.9c8.4,8.6,19.7,13.3,31.7,13.4H50    c24.7,0,44.8-20.1,45-44.7C95.2,25.5,75.1,5.2,50,5z M50,30c7.3,0,13.3,6,13.3,13.3s-6,13.4-13.3,13.4c-7.3,0-13.3-6-13.3-13.3    C36.7,36.1,42.7,30,50,30z M75.6,79.1c-6.9,6-15.9,9.7-25.7,9.7h-0.1v0.1c-9.5-0.1-18.4-3.5-25.4-9.7v-0.1v-0.5    c0-4.7,1.4-9.1,4-13c2.4-3.4,5.6-6.1,9.3-7.8c3.3,2.8,7.6,4.5,12.3,4.5c4.7,0,9-1.7,12.3-4.5c3.7,1.7,6.9,4.4,9.3,7.8    c2.6,3.8,4,8.3,4,13V79.1z"></path></g></g></svg>