<svg height='100px' width='100px'  fill="#707070" xmlns:dc="http://purl.org/dc/elements/1.1/" xmlns:cc="http://creativecommons.org/ns#" xmlns:rdf="http://www.w3.org/1999/02/22-rdf-syntax-ns#" xmlns:svg="http://www.w3.org/2000/svg" xmlns="http://www.w3.org/2000/svg" xmlns:sodipodi="http://sodipodi.sourceforge.net/DTD/sodipodi-0.dtd" xmlns:inkscape="http://www.inkscape.org/namespaces/inkscape" version="1.1" x="0px" y="0px" viewBox="0 0 100 100"><g transform="translate(0,-952.36218)"><path d="m 28,970.36216 c 5.52285,0 10,4.4772 10,10 0,0.8906 -0.12528,1.7407 -0.34375,2.5625 l 26.5,13.25 c 1.83118,-2.3228 4.6564,-3.8125 7.84375,-3.8125 5.52285,0 10,4.4772 10,10.00004 0,5.5228 -4.47715,10 -10,10 -3.18944,0 -6.01269,-1.5183 -7.84375,-3.8438 l -26.5,13.25 c 0.21847,0.8219 0.34375,1.7032 0.34375,2.5938 0,5.5228 -4.47715,10 -10,10 -5.52285,0 -10,-4.4772 -10,-10 0,-5.5228 4.47715,-10 10,-10 3.18735,0 6.01257,1.4897 7.84375,3.8125 l 26.5,-13.2187 c -0.49583,-1.7861 -0.33806,-3.5125 0,-5.18764 l -26.5,-13.25 c -1.83105,2.3255 -4.65431,3.8438 -7.84375,3.8438 -5.52285,0 -10,-4.4772 -10,-10 0,-5.5228 4.47715,-10 10,-10 z" style="color:#000000;enable-background:accumulate;" fill="#707070" stroke="none" marker="none" visibility="visible" display="inline" overflow="visible"></path></g></svg>